<svg xmlns="http://www.w3.org/2000/svg" width="70.299" height="70.299" viewBox="0 0 18.6 18.6"><g transform="matrix(.26458 0 0 .26458 -1.905 -1.64)"><circle cx="42.35" cy="41.35" r="35.15" fill="#9f0"/></g><g fill="#fff"><path fill-rule="evenodd" clip-rule="evenodd" d="M9.692 3.674a.443.443 0 00-.767 0l-4.641 8.04c-.145.249-.013.598.312.638.33.04.946.067 1.702-.13l.64.95a.266.266 0 00.465-.044l.486-1.127.486 1.127a.266.266 0 00.488 0l.486-1.127.486 1.127a.266.266 0 00.488 0L10.81 12l.486 1.128a.266.266 0 00.464.043l.634-.94c.57.135 1.223.123 1.571.104a.434.434 0 00.35-.653zm2.325 8.165a.266.266 0 01.333-.17c.447.141 1.03.155 1.427.142L9.309 4.073 4.824 11.84c.33.023.86.013 1.487-.173.069-.02.14-.011.198.02a.265.265 0 01.14.104l.458.68.538-1.247a.266.266 0 01.488 0l.486 1.128.486-1.128a.266.266 0 01.488 0l.486 1.128.487-1.128a.266.266 0 01.488 0l.537 1.247z"/><path d="M9.076 8.06a.177.177 0 01.307 0l.959 1.66a.177.177 0 01-.153.266H8.27a.177.177 0 01-.153-.265z"/></g></svg>
