<?xml version="1.0" encoding="UTF-8" standalone="no"?>
<svg
   xmlns:dc="http://purl.org/dc/elements/1.1/"
   xmlns:cc="http://creativecommons.org/ns#"
   xmlns:rdf="http://www.w3.org/1999/02/22-rdf-syntax-ns#"
   xmlns:svg="http://www.w3.org/2000/svg"
   xmlns="http://www.w3.org/2000/svg"
   xmlns:sodipodi="http://sodipodi.sourceforge.net/DTD/sodipodi-0.dtd"
   xmlns:inkscape="http://www.inkscape.org/namespaces/inkscape"
   width="90"
   height="73.985703"
   viewBox="0 0 90 73.985703"
   fill="none"
   version="1.1"
   id="svg4"
   sodipodi:docname="logo.svg"
   inkscape:version="1.0.1 (3bc2e813f5, 2020-09-07)">
  <metadata
     id="metadata10">
    <rdf:RDF>
      <cc:Work
         rdf:about="">
        <dc:format>image/svg+xml</dc:format>
        <dc:type
           rdf:resource="http://purl.org/dc/dcmitype/StillImage" />
        <dc:title></dc:title>
      </cc:Work>
    </rdf:RDF>
  </metadata>
  <defs
     id="defs8" />
  <sodipodi:namedview
     pagecolor="#000000"
     bordercolor="#666666"
     borderopacity="1"
     objecttolerance="10"
     gridtolerance="10"
     guidetolerance="10"
     inkscape:pageopacity="0"
     inkscape:pageshadow="2"
     inkscape:window-width="1920"
     inkscape:window-height="1048"
     id="namedview6"
     showgrid="false"
     inkscape:pagecheckerboard="false"
     showguides="true"
     inkscape:guide-bbox="true"
     fit-margin-top="0"
     fit-margin-left="0"
     fit-margin-right="0"
     fit-margin-bottom="0"
     inkscape:zoom="5.9594595"
     inkscape:cx="48.612174"
     inkscape:cy="32.184146"
     inkscape:window-x="0"
     inkscape:window-y="32"
     inkscape:window-maximized="0"
     inkscape:current-layer="svg4" />
  <g
     id="g100"
     transform="translate(17.947153,-37.521133)">
    <g
       id="g48"
       transform="translate(-4.848342,33.22559)">
      <path
         d="M 23.407889,14.710433 0.38564905,56.565114 c -0.06365,0.1214 -0.095068,0.2571 -0.09125,0.3942 0.00382,0.137 0.04275,0.2707 0.11307,0.3884 0.07031,0.1177 0.16966,0.2153 0.28852,0.2836 0.11887,0.0683 0.25326997,0.1049 0.39033995,0.1064 h 14.67126 l 2.0449,4.8475 2.0448,-7.5787 2.0448,7.5787 2.002,-7.5787 2.0448,7.5787 2.0448,-7.5787 2.0449,7.5787 2.0448,-4.8475 h 14.2995 c 0.1366,0.0013 0.2712,-0.033 0.3906,-0.0995 0.1193,-0.0665 0.2193,-0.163 0.29,-0.2799 0.0707,-0.1169 0.1097,-0.2502 0.1133,-0.3868 0.0035,-0.1366 -0.0286,-0.2717 -0.0932,-0.3921 l -22.2787,-41.854681 c -0.0658,-0.12627 -0.1647,-0.23229 -0.2861,-0.30675 -0.1214,-0.07446 -0.2607,-0.11456 -0.4031,-0.11603 -0.1424,-0.0015 -0.2825,0.03576 -0.4054,0.1077 -0.1229,0.07194 -0.224,0.1759 -0.2924,0.30078 z"
         stroke="#ffffff"
         stroke-width="0.83"
         stroke-linejoin="round"
         id="path2-6" />
      <path
         d="m 18.989289,43.881414 3.961,-7.1497 c 0.085,-0.1551 0.2102,-0.2845 0.3624,-0.3746 0.1522,-0.0901 0.3258,-0.1377 0.5027,-0.1377 0.1769,0 0.3505,0.0476 0.5027,0.1377 0.1522,0.0901 0.2774,0.2195 0.3624,0.3746 l 3.8466,7.1497 c 0.079,0.1482 0.1183,0.3143 0.1141,0.4821 -0.0042,0.1679 -0.0519,0.3318 -0.1383,0.4758 -0.0864,0.144 -0.2086,0.2631 -0.3547,0.3459 -0.1461,0.0827 -0.3112,0.1262 -0.4791,0.1262 h -7.8218 c -0.1664,-0.004 -0.3291,-0.0499 -0.4729,-0.1336 -0.1438,-0.0837 -0.2642,-0.2025 -0.3498,-0.3452 -0.0856,-0.1427 -0.1337,-0.3047 -0.1399,-0.471 -0.0062,-0.1663 0.0298,-0.3315 0.1046,-0.4802 z"
         fill="#ffffff"
         id="path4" />
    </g>
    <g
       style="fill:none"
       id="g83"
       transform="translate(-17.947153,37.521133)">
      <path
         fill-rule="evenodd"
         clip-rule="evenodd"
         d="m 36.9929,72.9857 c 19.8783,0 35.9928,-16.1145 35.9928,-35.9928 C 72.9857,17.1145 56.8712,1 36.9929,1 17.1145,1 1,17.1145 1,36.9929 1,56.8712 17.1145,72.9857 36.9929,72.9857 Z M 73.9857,36.9929 c 0,20.4305 -16.5623,36.9928 -36.9928,36.9928 C 16.5623,73.9857 0,57.4234 0,36.9929 0,16.5623 16.5623,0 36.9929,0 49.9736,0 61.3927,6.68583 67.9946,16.8018 l 8.0993,-5.3996 C 75.3999,10.2654 75,8.9294 75,7.5 75,3.35786 78.3579,0 82.5,0 86.6421,0 90,3.35786 90,7.5 90,11.6421 86.6421,15 82.5,15 80.1463,15 78.0458,13.9158 76.6708,12.2195 l -8.1409,5.4272 c 3.4602,5.6287 5.4558,12.2544 5.4558,19.3462 z M 89,7.5 C 89,11.0899 86.0899,14 82.5,14 78.9101,14 76,11.0899 76,7.5 76,3.91015 78.9101,1 82.5,1 86.0899,1 89,3.91015 89,7.5 Z"
         fill="#99ff00"
         id="path72" />
    </g>
  </g>
</svg>
